<svg xmlns="http://www.w3.org/2000/svg" viewBox="-1.38 -46.34 517.10 65.16" fill="none">
  <path d="M20.01 0.51Q15.03 0.51 11.11-1.80Q7.19-4.11 4.90-8.46Q2.62-12.80 2.62-18.89Q2.62-25.01 4.90-29.36Q7.19-33.72 11.11-36.03Q15.03-38.34 20.01-38.34Q24.96-38.34 28.88-36.03Q32.80-33.72 35.08-29.36Q37.35-25.01 37.35-18.89Q37.35-12.77 35.08-8.44Q32.80-4.11 28.88-1.80Q24.96 0.51 20.01 0.51M20.01-5.56Q24.63-5.56 27.57-8.99Q30.52-12.42 30.52-18.89Q30.52-25.39 27.57-28.83Q24.63-32.27 20.01-32.27Q15.36-32.27 12.39-28.83Q9.42-25.39 9.42-18.89Q9.42-12.44 12.39-9Q15.36-5.56 20.01-5.56 M52.33 0.51Q48.98 0.51 46.32-1.21Q43.67-2.92 42.15-6.20Q40.62-9.47 40.62-14.14Q40.62-18.87 42.17-22.13Q43.72-25.39 46.38-27.07Q49.03-28.74 52.30-28.74Q54.84-28.74 56.46-27.89Q58.07-27.04 59.01-25.86Q59.95-24.68 60.45-23.69L60.73-23.69L60.73-37.83L67.34-37.83L67.34 0L60.86 0L60.86-4.49L60.45-4.49Q59.92-3.48 58.96-2.31Q57.99-1.14 56.38-0.32Q54.77 0.51 52.33 0.51M54.13-4.93Q57.36-4.93 59.11-7.48Q60.86-10.03 60.86-14.17Q60.86-18.31 59.12-20.81Q57.38-23.31 54.13-23.31Q50.78-23.31 49.08-20.72Q47.38-18.13 47.38-14.17Q47.38-10.18 49.09-7.55Q50.81-4.93 54.13-4.93 M85.03 0.58Q80.89 0.58 77.85-1.26Q74.80-3.10 73.14-6.39Q71.47-9.67 71.47-14.04Q71.47-18.46 73.14-21.77Q74.80-25.09 77.85-26.91Q80.89-28.74 85.03-28.74Q89.17-28.74 92.22-26.91Q95.26-25.09 96.94-21.77Q98.62-18.46 98.62-14.04Q98.62-9.67 96.94-6.39Q95.26-3.10 92.22-1.26Q89.17 0.58 85.03 0.58M85.03-4.77Q87.34-4.77 88.87-6.02Q90.39-7.26 91.15-9.37Q91.91-11.48 91.91-14.07Q91.91-16.68 91.15-18.79Q90.39-20.90 88.87-22.14Q87.34-23.38 85.03-23.38Q82.75-23.38 81.22-22.14Q79.70-20.90 78.95-18.79Q78.20-16.68 78.20-14.07Q78.20-11.48 78.95-9.37Q79.70-7.26 81.22-6.02Q82.75-4.77 85.03-4.77 M109.38-16.63L109.38 0L102.78 0L102.78-28.39L109.03-28.39L109.10-22.72Q111.64-28.74 117.89-28.74Q122.28-28.74 124.93-25.95Q127.59-23.16 127.59-18.05L127.59 0L120.99 0L120.99-17.04Q120.99-19.88 119.51-21.51Q118.04-23.13 115.45-23.13Q112.81-23.13 111.10-21.43Q109.38-19.73 109.38-16.63 M140.64-28.39L146.12-28.39L146.12-23.21L140.64-23.21L140.64-8Q140.64-6.45 141.28-5.73Q141.93-5 143.46-5Q143.91-5 144.65-5.12Q145.39-5.23 145.87-5.33L146.91-0.23Q145.82 0.10 144.67 0.24Q143.53 0.38 142.49 0.38Q138.40 0.38 136.22-1.65Q134.04-3.68 134.04-7.44L134.04-23.21L130-23.21L130-28.39L134.04-28.39L134.04-35.14L140.64-35.14 M162.07 0.58Q157.93 0.58 154.88-1.26Q151.83-3.10 150.17-6.39Q148.51-9.67 148.51-14.04Q148.51-18.46 150.17-21.77Q151.83-25.09 154.88-26.91Q157.93-28.74 162.07-28.74Q166.21-28.74 169.25-26.91Q172.30-25.09 173.97-21.77Q175.65-18.46 175.65-14.04Q175.65-9.67 173.97-6.39Q172.30-3.10 169.25-1.26Q166.21 0.58 162.07 0.58M162.07-4.77Q164.38-4.77 165.90-6.02Q167.42-7.26 168.19-9.37Q168.95-11.48 168.95-14.07Q168.95-16.68 168.19-18.79Q167.42-20.90 165.90-22.14Q164.38-23.38 162.07-23.38Q159.78-23.38 158.26-22.14Q156.73-20.90 155.99-18.79Q155.24-16.68 155.24-14.07Q155.24-11.48 155.99-9.37Q156.73-7.26 158.26-6.02Q159.78-4.77 162.07-4.77 M186.90 0L180.12 0L180.12-37.83L186.90-37.83L186.90-22.19L204.49-22.19L204.49-37.83L211.27-37.83L211.27 0L204.49 0L204.49-16.48L186.90-16.48 M226.71 0.36Q222.32 0.36 219.65-2.44Q216.99-5.23 216.99-10.33L216.99-28.39L223.59-28.39L223.59-11.35Q223.59-8.51 225.07-6.88Q226.56-5.26 229.15-5.26Q231.79-5.26 233.49-6.96Q235.19-8.66 235.19-11.76L235.19-28.39L241.82-28.39L241.82 0L235.55 0L235.50-5.69Q232.96 0.36 226.71 0.36 M262.21 0.51Q259.77 0.51 258.16-0.32Q256.54-1.14 255.58-2.31Q254.61-3.48 254.11-4.49L253.67-4.49L253.67 0L247.23 0L247.23-37.83L253.83-37.83L253.83-23.69L254.11-23.69Q254.59-24.68 255.53-25.86Q256.47-27.04 258.09-27.89Q259.72-28.74 262.23-28.74Q265.51-28.74 268.16-27.07Q270.81-25.39 272.37-22.13Q273.94-18.87 273.94-14.14Q273.94-9.47 272.40-6.20Q270.86-2.92 268.22-1.21Q265.58 0.51 262.21 0.51M260.43-4.93Q263.73-4.93 265.44-7.55Q267.16-10.18 267.16-14.17Q267.16-18.13 265.47-20.72Q263.78-23.31 260.43-23.31Q257.15-23.31 255.43-20.81Q253.70-18.31 253.70-14.17Q253.70-10.03 255.45-7.48Q257.20-4.93 260.43-4.93" fill="#f5f5f7"/>
  <path d="M295.02 0L289.89 0L303.63-37.83L309.21-37.83L323.13 0L318.05 0L314.27-10.56L298.68-10.56L295.02 0M302.81-22.45L300.15-14.78L312.77-14.78L310.03-22.45Q309.34-24.35 308.48-27.10Q307.61-29.86 306.39-33.97Q305.20-29.78 304.31-26.99Q303.42-24.20 302.81-22.45 M338.81 0.61Q334.95 0.61 332.05-1.22Q329.14-3.05 327.51-6.35Q325.89-9.65 325.89-14.02Q325.89-18.46 327.51-21.77Q329.14-25.09 332.05-26.91Q334.95-28.74 338.81-28.74Q342.93-28.74 346.04-26.67Q349.15-24.60 350.31-20.90L345.92-19.65Q345.29-21.84 343.45-23.25Q341.61-24.65 338.81-24.65Q335.97-24.65 334.14-23.17Q332.31-21.68 331.42-19.27Q330.53-16.86 330.53-14.02Q330.53-11.22 331.42-8.82Q332.31-6.42 334.14-4.95Q335.97-3.48 338.81-3.48Q341.68-3.48 343.55-4.94Q345.41-6.40 346.05-8.71L350.42-7.46Q349.27-3.68 346.12-1.54Q342.98 0.61 338.81 0.61 M363.71 0.66Q361.02 0.66 358.83-0.36Q356.63-1.37 355.33-3.33Q354.04-5.28 354.04-8.07Q354.04-10.51 355-12.04Q355.97-13.56 357.58-14.43Q359.19-15.31 361.15-15.74Q363.10-16.17 365.08-16.43Q367.62-16.76 369.22-16.94Q370.82-17.11 371.60-17.54Q372.37-17.98 372.37-19.02L372.37-19.17Q372.37-21.81 370.87-23.27Q369.38-24.73 366.43-24.73Q363.36-24.73 361.63-23.40Q359.91-22.06 359.24-20.57L354.85-22.01Q355.94-24.60 357.80-26.06Q359.65-27.52 361.89-28.13Q364.12-28.74 366.30-28.74Q367.73-28.74 369.54-28.40Q371.36-28.06 373.04-27.04Q374.73-26.03 375.84-24.03Q376.94-22.04 376.94-18.71L376.94 0L372.45 0L372.45-3.86L372.14-3.86Q371.66-2.87 370.59-1.82Q369.53-0.76 367.83-0.05Q366.13 0.66 363.71 0.66M364.50-3.38Q367.04-3.38 368.79-4.37Q370.54-5.36 371.46-6.94Q372.37-8.53 372.37-10.26L372.37-14.19Q372.09-13.86 371.15-13.60Q370.21-13.33 369.01-13.13Q367.80-12.92 366.67-12.78Q365.54-12.64 364.88-12.57Q363.23-12.37 361.80-11.87Q360.36-11.37 359.50-10.42Q358.64-9.47 358.64-7.85Q358.64-5.64 360.30-4.51Q361.96-3.38 364.50-3.38 M394.40 0.61Q390.88 0.61 388.16-1.19Q385.44-3 383.92-6.30Q382.39-9.60 382.39-14.12Q382.39-18.61 383.93-21.90Q385.47-25.19 388.18-26.96Q390.90-28.74 394.43-28.74Q397.20-28.74 398.82-27.83Q400.45-26.91 401.32-25.76Q402.20-24.60 402.66-23.84L403.01-23.84L403.01-37.83L407.58-37.83L407.58 0L403.16 0L403.16-4.39L402.66-4.39Q402.20-3.61 401.30-2.42Q400.40-1.24 398.76-0.32Q397.12 0.61 394.40 0.61M395.09-3.48Q398.95-3.48 401.01-6.45Q403.06-9.42 403.06-14.17Q403.06-18.87 401.04-21.76Q399.03-24.65 395.09-24.65Q392.40-24.65 390.61-23.26Q388.82-21.86 387.93-19.49Q387.04-17.11 387.04-14.17Q387.04-11.20 387.94-8.77Q388.84-6.35 390.65-4.91Q392.45-3.48 395.09-3.48 M426.34 0.61Q422.23 0.61 419.24-1.22Q416.26-3.05 414.65-6.32Q413.03-9.60 413.03-13.96Q413.03-18.33 414.61-21.66Q416.18-24.98 419.06-26.86Q421.95-28.74 425.81-28.74Q428.07-28.74 430.26-27.99Q432.46-27.24 434.25-25.58Q436.04-23.92 437.10-21.20Q438.17-18.48 438.17-14.55L438.17-12.64L417.66-12.64Q417.83-8.20 420.21-5.83Q422.58-3.45 426.36-3.45Q428.88-3.45 430.69-4.56Q432.51-5.66 433.30-7.82L437.71-6.60Q436.72-3.38 433.72-1.38Q430.71 0.61 426.34 0.61M417.68-16.50L433.52-16.50Q433.19-20.13 431.25-22.41Q429.31-24.68 425.81-24.68Q423.37-24.68 421.60-23.54Q419.84-22.39 418.82-20.54Q417.81-18.69 417.68-16.50 M448.09 0L443.52 0L443.52-28.39L447.97-28.39L447.99-23.18Q449.03-26.05 451.23-27.47Q453.42-28.89 455.94-28.89Q458.73-28.89 460.57-27.31Q462.41-25.72 463.17-23.11Q464.19-25.80 466.61-27.35Q469.04-28.89 472.11-28.89Q474.57-28.89 476.61-27.83Q478.64-26.76 479.84-24.60Q481.05-22.45 481.05-19.14L481.05 0L476.48 0L476.48-19.02Q476.48-22.09 474.75-23.41Q473.03-24.73 470.74-24.73Q467.87-24.73 466.22-22.98Q464.57-21.23 464.57-18.54L464.57 0L460 0L460-19.47Q460-21.84 458.43-23.28Q456.85-24.73 454.44-24.73Q451.95-24.73 450.02-23Q448.09-21.28 448.09-17.87 M487.42 10.28L488.58 6.32L489.07 6.45Q491.17 7.01 492.70 6.28Q494.22 5.56 495.26 2.51L496.07 0.15L485.23-28.39L490.23-28.39L496.28-11.55Q496.94-9.70 497.46-7.87Q497.98-6.04 498.46-4.27Q498.94-6.04 499.46-7.87Q499.98-9.70 500.64-11.55L506.74-28.39L511.71-28.39L499.25 4.24Q497.95 7.62 495.87 9.22Q493.79 10.82 490.77 10.82Q489.55 10.82 488.66 10.64Q487.77 10.46 487.42 10.28" fill="rgba(255,255,255,0.55)"/>
</svg>
