<?xml version="1.0" standalone="no"?>
<!DOCTYPE svg PUBLIC "-//W3C//DTD SVG 20010904//EN"
 "http://www.w3.org/TR/2001/REC-SVG-20010904/DTD/svg10.dtd">
<svg version="1.0" xmlns="http://www.w3.org/2000/svg"
 width="1254.000000pt" height="1254.000000pt" viewBox="0 0 1254.000000 1254.000000"
 preserveAspectRatio="xMidYMid meet">

<g transform="translate(0.000000,1254.000000) scale(0.100000,-0.100000)"
fill="#000000" stroke="none">
<path d="M4250 8673 c-562 -25 -1100 -264 -1506 -668 -203 -202 -336 -388
-460 -640 -167 -343 -238 -652 -238 -1045 0 -354 62 -643 208 -967 336 -749
1050 -1264 1876 -1354 154 -17 455 -6 610 21 660 116 1250 521 1584 1085 153
258 294 441 418 544 61 50 198 141 213 141 2 0 6 -327 7 -727 l3 -728 31 -65
c76 -162 209 -238 395 -228 182 11 317 122 365 303 11 40 14 211 14 831 l0
781 23 21 23 22 791 0 c738 0 792 -1 812 -17 l21 -18 3 -810 3 -810 23 -58
c36 -92 94 -155 184 -201 67 -35 87 -40 161 -44 194 -10 348 91 405 266 21 62
21 70 21 2018 0 1949 0 1955 -21 2016 -26 78 -67 138 -125 182 -187 143 -475
94 -589 -99 -60 -101 -57 -65 -61 -860 -1 -401 -3 -733 -3 -737 -1 -4 -8 -14
-17 -22 -14 -14 -102 -16 -819 -16 l-804 0 -15 22 c-14 20 -16 107 -16 738 0
790 1 769 -63 878 -39 65 -128 136 -198 156 -258 77 -492 -54 -539 -304 -6
-32 -10 -370 -11 -884 l0 -831 -72 -52 c-40 -29 -109 -87 -154 -129 l-83 -76
0 94 c0 370 -130 818 -337 1166 -333 559 -932 967 -1581 1077 -80 14 -378 38
-407 33 -5 -1 -39 -3 -75 -5z m359 -908 c139 -27 251 -64 376 -125 395 -192
677 -540 780 -964 123 -504 -23 -1014 -394 -1387 -172 -172 -342 -277 -571
-353 -151 -50 -269 -68 -445 -69 -233 -1 -419 41 -621 137 -405 194 -696 557
-802 999 -25 105 -27 126 -26 332 0 213 1 224 31 336 71 269 202 498 392 688
240 241 533 382 876 422 96 11 305 2 404 -16z"/>
</g>
</svg>
